<svg id="svg" version="1.1" width="800" height="607" xmlns="http://www.w3.org/2000/svg"><path d="M463.426 17.752 C 459.536 19.814,455.686 21.950,454.871 22.500 C 452.065 24.394,448.293 30.510,447.026 35.221 C 446.328 37.817,444.686 41.392,443.378 43.165 C 440.248 47.408,440.059 56.060,443.000 60.500 C 445.742 64.640,445.800 78.642,443.100 84.586 C 441.516 88.074,440.569 88.861,436.622 89.966 C 433.131 90.943,430.960 90.996,427.750 90.182 C 425.413 89.589,420.641 88.828,417.147 88.491 C 411.935 87.988,410.448 88.189,408.875 89.613 C 407.091 91.227,406.719 91.236,403.579 89.739 C 398.878 87.497,394.115 86.853,390.000 87.903 C 386.812 88.716,387.061 88.804,392.790 88.898 C 396.889 88.964,400.416 89.682,402.916 90.957 C 405.026 92.034,407.033 92.634,407.376 92.290 C 407.719 91.947,408.000 92.123,408.000 92.680 C 408.000 93.238,404.738 96.819,400.750 100.639 C 396.762 104.459,391.410 109.978,388.857 112.903 L 384.213 118.222 383.515 113.861 C 382.526 107.692,378.553 102.194,374.539 101.441 C 370.425 100.670,363.821 102.436,361.586 104.905 C 360.003 106.654,359.986 107.073,361.390 109.786 L 362.924 112.755 348.212 113.274 C 331.579 113.861,324.096 115.601,310.191 122.110 C 300.811 126.501,296.010 126.987,291.500 124.000 C 289.850 122.907,287.600 122.008,286.500 122.001 C 281.874 121.973,276.632 119.614,271.943 115.450 C 266.057 110.222,263.403 108.458,260.000 107.515 C 258.005 106.962,258.257 107.352,261.250 109.447 C 265.121 112.157,266.063 114.000,263.577 114.000 C 261.976 114.000,255.512 109.249,249.500 103.655 C 247.300 101.607,241.497 97.626,236.604 94.808 C 231.711 91.989,226.199 88.358,224.354 86.738 C 221.454 84.191,220.999 83.164,220.996 79.146 C 220.991 72.541,218.310 68.576,212.926 67.209 C 210.192 66.515,208.006 66.462,206.886 67.061 C 205.921 67.577,204.692 68.000,204.154 68.000 C 203.617 68.000,197.159 62.019,189.802 54.710 C 182.446 47.400,174.981 40.821,173.214 40.089 C 169.411 38.513,169.021 37.000,172.419 37.000 C 173.900 37.000,176.908 38.859,180.169 41.788 C 195.800 55.827,202.277 60.000,208.441 60.000 C 211.395 60.000,212.067 59.583,212.612 57.411 C 213.409 54.235,211.341 47.618,208.845 45.359 C 206.603 43.331,206.470 40.685,208.524 38.980 C 210.621 37.240,211.094 37.974,213.188 46.221 C 214.193 50.177,216.132 55.027,217.499 56.998 C 220.056 60.689,221.686 66.587,222.679 75.750 C 223.231 80.843,223.417 81.108,228.874 84.556 C 240.508 91.908,256.603 99.034,271.769 103.548 C 280.166 106.047,290.669 109.646,295.107 111.546 C 305.070 115.810,310.356 115.995,319.727 112.406 C 323.452 110.979,331.450 108.775,337.500 107.508 C 343.550 106.240,347.375 105.163,346.000 105.113 C 342.688 104.993,325.051 109.267,317.500 112.020 C 310.110 114.713,305.230 114.301,295.500 110.162 C 288.990 107.392,282.773 105.298,261.000 98.541 C 252.327 95.850,236.666 88.007,228.690 82.361 L 224.256 79.221 223.543 71.361 C 222.985 65.209,222.114 62.195,219.535 57.500 C 217.722 54.200,215.485 48.800,214.563 45.500 C 213.641 42.200,212.657 38.713,212.376 37.750 C 211.699 35.430,209.466 35.534,207.000 38.000 C 204.476 40.524,204.348 46.709,206.684 53.227 C 207.616 55.827,208.042 58.291,207.630 58.703 C 206.282 60.051,195.647 53.628,189.005 47.455 C 178.530 37.720,174.369 34.824,171.371 35.182 C 169.903 35.357,168.253 36.217,167.704 37.094 C 166.903 38.375,168.684 40.689,176.749 48.844 C 182.273 54.430,187.077 59.000,187.426 59.000 C 188.385 59.000,194.295 65.884,196.000 68.986 C 196.825 70.487,200.313 74.303,203.750 77.465 C 208.073 81.442,210.000 83.953,210.000 85.608 C 210.000 86.923,209.636 88.000,209.191 88.000 C 208.002 88.000,184.814 79.499,181.949 78.013 C 178.702 76.329,176.000 73.922,176.000 72.714 C 176.000 72.154,177.519 71.985,179.566 72.317 C 182.082 72.725,183.026 72.543,182.773 71.698 C 182.317 70.175,165.577 62.025,162.357 61.759 C 159.230 61.500,159.635 58.626,162.864 58.167 C 164.153 57.984,168.988 59.519,173.609 61.578 C 186.958 67.526,186.565 64.022,172.851 54.817 C 162.388 47.795,159.391 46.847,158.071 50.143 L 157.127 52.500 157.063 49.905 C 157.029 48.478,157.864 46.528,158.920 45.573 C 160.746 43.920,161.064 43.935,165.448 45.874 C 169.873 47.831,178.147 53.784,180.740 56.876 C 181.421 57.689,182.224 58.109,182.523 57.811 C 183.455 56.878,171.010 46.183,166.391 43.947 C 162.390 42.011,162.000 41.496,161.998 38.161 C 161.996 33.214,159.217 28.019,155.102 25.270 C 152.471 23.512,150.288 23.000,145.429 23.000 C 139.856 23.000,138.833 23.321,136.290 25.863 C 134.715 27.438,132.614 30.701,131.621 33.113 C 130.627 35.526,128.894 39.338,127.769 41.584 C 126.203 44.710,125.872 46.704,126.360 50.084 C 127.342 56.898,125.700 59.096,118.500 60.610 C 115.200 61.304,110.078 61.900,107.118 61.936 C 103.396 61.980,100.633 62.682,98.157 64.212 C 95.174 66.055,93.324 66.386,87.039 66.198 C 78.538 65.944,61.812 69.316,59.850 71.680 C 58.848 72.888,59.049 73.041,61.075 72.609 C 62.409 72.325,66.739 71.397,70.697 70.546 C 74.656 69.696,81.138 69.000,85.101 69.000 C 90.751 69.000,93.472 68.449,97.703 66.447 C 101.704 64.555,104.315 63.984,107.800 64.239 L 112.500 64.584 108.216 65.425 C 104.342 66.186,101.764 67.736,94.000 73.972 C 90.720 76.606,77.187 80.000,69.962 80.000 C 66.817 80.000,62.502 79.269,60.372 78.377 C 57.324 77.099,54.696 76.891,48.024 77.400 L 39.549 78.046 42.891 75.581 C 45.030 74.002,48.261 72.873,51.866 72.444 C 61.361 71.312,66.000 65.427,66.000 54.514 C 66.000 47.297,64.994 45.000,59.076 38.707 C 53.000 32.245,40.854 30.475,34.283 35.095 C 31.155 37.293,27.000 42.619,27.000 44.430 C 27.000 45.332,26.368 47.067,25.595 48.285 C 22.943 52.466,22.659 60.082,24.932 66.061 C 26.069 69.052,26.999 72.192,26.999 73.039 C 27.000 73.885,27.897 76.336,28.992 78.485 C 30.516 81.474,32.222 82.948,36.242 84.751 C 39.134 86.049,42.893 87.793,44.595 88.629 C 46.511 89.569,51.273 90.262,57.095 90.446 C 62.601 90.621,68.314 91.419,70.876 92.372 C 73.282 93.268,77.220 94.000,79.626 94.000 C 83.543 94.000,84.000 94.244,84.000 96.336 C 84.000 97.621,82.481 100.658,80.625 103.086 C 78.540 105.812,76.982 109.221,76.550 112.000 C 74.739 123.644,74.296 125.666,73.044 128.000 C 72.306 129.375,69.911 132.047,67.722 133.939 C 63.443 137.635,57.019 149.610,56.974 153.972 C 56.941 157.233,53.531 172.331,52.423 174.125 C 51.955 174.881,51.192 181.575,50.727 189.000 C 49.717 205.112,49.686 209.814,50.541 216.702 C 50.915 219.720,50.715 223.333,50.064 225.306 C 49.446 227.177,48.550 233.215,48.071 238.723 C 47.333 247.221,46.769 249.391,44.351 253.044 L 41.500 257.349 41.207 285.541 L 40.913 313.733 38.457 316.041 C 35.790 318.546,35.243 322.717,37.121 326.226 C 38.714 329.202,36.715 337.591,32.054 347.500 C 25.069 362.345,26.090 367.000,36.332 367.000 C 39.264 367.000,44.685 366.052,48.378 364.892 C 54.291 363.036,55.162 362.442,55.667 359.915 C 55.983 358.336,56.749 356.626,57.371 356.115 C 58.192 355.439,58.501 357.271,58.505 362.843 C 58.509 369.807,58.800 370.930,61.721 375.250 C 65.147 380.318,64.446 381.663,60.562 377.473 C 58.199 374.923,56.817 371.999,55.377 366.500 L 54.591 363.500 54.225 366.846 C 53.666 371.956,58.476 380.754,62.821 382.570 C 67.727 384.619,70.431 384.349,73.857 381.467 C 77.910 378.057,78.716 374.815,79.422 359.099 C 79.912 348.176,80.391 345.104,82.012 342.481 C 83.105 340.712,84.000 337.884,84.000 336.197 C 84.000 334.510,84.417 332.034,84.926 330.695 C 85.802 328.391,99.107 308.964,104.236 302.500 C 105.545 300.850,108.829 295.086,111.532 289.691 C 115.580 281.614,116.463 278.894,116.534 274.281 C 116.610 269.317,116.968 268.386,119.678 266.090 C 123.045 263.239,126.000 258.150,126.000 255.205 C 126.000 254.163,127.797 250.529,129.994 247.130 C 132.980 242.511,134.153 239.505,134.641 235.225 C 135.000 232.076,136.306 227.187,137.543 224.360 C 138.781 221.533,140.122 217.722,140.524 215.893 C 140.925 214.063,141.592 211.876,142.004 211.033 C 142.417 210.190,144.024 205.450,145.576 200.500 C 148.241 192.003,148.388 190.577,148.217 175.000 C 148.024 157.509,147.324 154.097,143.399 151.526 C 140.194 149.426,140.364 148.081,144.490 142.891 C 146.410 140.476,147.985 137.879,147.990 137.121 C 148.003 135.316,152.159 123.967,155.359 117.000 C 157.364 112.633,157.897 112.030,157.942 114.072 C 157.974 115.486,158.626 118.636,159.391 121.072 C 160.157 123.507,161.324 128.200,161.986 131.500 C 163.877 140.927,165.964 146.104,170.050 151.500 C 175.133 158.214,180.480 164.014,183.352 165.928 C 185.622 167.441,193.242 173.819,201.199 180.866 C 203.290 182.718,205.000 184.821,205.000 185.540 C 205.000 186.258,206.215 188.291,207.700 190.056 C 209.266 191.916,210.632 194.996,210.950 197.382 C 211.387 200.650,211.913 201.500,213.500 201.500 C 215.025 201.500,215.574 200.729,215.813 198.250 C 216.219 194.039,217.615 194.125,219.697 198.490 C 222.405 204.170,227.588 204.457,226.769 198.882 C 226.410 196.435,226.698 195.981,228.673 195.875 C 232.900 195.648,233.273 195.514,234.327 193.843 C 235.070 192.666,234.996 190.928,234.072 187.843 C 232.563 182.801,222.035 171.831,212.925 165.810 C 207.540 162.251,200.415 154.709,196.572 148.500 C 195.550 146.850,192.301 142.522,189.352 138.882 C 185.766 134.457,183.681 130.812,183.059 127.882 C 182.547 125.472,181.660 121.700,181.088 119.500 C 180.516 117.300,180.037 108.631,180.024 100.236 C 180.008 90.053,179.597 84.327,178.788 83.032 C 176.845 79.921,178.526 79.653,181.639 82.577 C 183.212 84.056,185.922 85.869,187.659 86.608 C 189.397 87.347,193.447 89.536,196.659 91.474 C 199.872 93.412,204.525 95.685,207.000 96.526 C 210.877 97.842,220.524 104.770,228.966 112.300 C 231.461 114.526,239.777 120.674,250.205 128.004 C 257.839 133.369,278.163 143.421,287.620 146.508 C 294.823 148.859,296.506 149.000,317.378 148.999 C 333.484 148.999,341.518 148.577,346.922 147.450 C 353.486 146.081,363.593 141.893,371.000 137.474 C 374.866 135.168,378.436 135.949,378.810 139.184 C 379.184 142.424,377.101 146.666,371.533 154.000 C 365.248 162.279,361.283 169.835,357.799 180.171 C 355.081 188.234,354.639 190.994,354.539 200.502 C 354.476 206.553,354.113 212.007,353.733 212.623 C 353.353 213.238,351.661 214.018,349.974 214.355 C 346.403 215.069,338.450 220.291,337.105 222.804 C 335.857 225.135,332.991 239.177,333.571 240.115 C 333.825 240.526,333.275 242.452,332.348 244.395 C 330.760 247.727,330.765 248.153,332.445 251.878 C 334.216 255.804,334.210 255.861,331.531 261.664 C 329.580 265.890,328.571 270.258,327.875 277.500 C 326.407 292.757,325.776 292.000,339.967 292.000 C 353.956 292.000,364.020 294.598,372.655 300.438 C 382.148 306.859,387.442 319.388,384.910 329.443 L 383.835 333.713 376.167 326.100 C 364.762 314.774,353.849 310.000,339.364 310.000 C 336.414 310.000,334.000 309.611,334.000 309.136 C 334.000 308.661,335.769 307.046,337.932 305.547 C 344.685 300.867,357.390 300.754,364.149 305.313 C 365.992 306.556,370.577 309.288,374.338 311.384 C 381.707 315.492,382.267 314.378,375.832 308.409 C 365.695 299.004,359.132 296.870,338.449 296.253 L 322.397 295.775 315.151 299.424 C 309.262 302.389,307.247 302.949,304.389 302.413 C 301.036 301.784,300.577 302.070,294.434 308.627 C 286.546 317.046,285.184 320.692,286.918 328.753 C 288.736 337.210,293.112 345.839,299.258 353.088 C 309.610 365.297,310.152 369.354,302.712 378.935 C 297.899 385.133,291.788 395.054,285.171 407.414 C 282.790 411.861,280.186 416.705,279.384 418.178 C 278.504 419.794,277.720 424.953,277.409 431.178 C 277.055 438.267,276.308 442.753,275.024 445.500 C 273.996 447.700,272.202 452.601,271.038 456.392 C 269.048 462.871,266.753 468.195,263.452 474.000 C 262.669 475.375,262.023 477.350,262.015 478.389 C 262.007 479.429,260.682 482.421,259.071 485.039 C 250.775 498.522,246.725 517.115,250.506 524.364 C 253.118 529.373,252.411 531.886,246.694 537.910 C 241.892 542.968,241.263 544.166,240.086 550.500 C 238.865 557.073,239.015 564.828,240.523 573.070 C 240.951 575.406,240.628 577.955,239.588 580.443 C 238.704 582.560,238.000 587.054,238.000 590.587 C 238.000 595.971,238.312 597.097,240.063 598.034 C 242.547 599.363,274.471 601.131,277.273 600.095 C 278.358 599.693,280.203 597.392,281.373 594.980 C 283.408 590.785,283.781 590.536,290.000 589.196 C 301.753 586.663,307.331 584.648,310.648 581.736 C 314.555 578.306,319.000 569.375,319.000 564.956 C 319.000 560.084,316.147 550.181,313.176 544.745 C 311.704 542.051,309.543 538.001,308.374 535.744 C 306.441 532.011,306.186 531.837,305.558 533.818 C 304.711 536.487,300.695 537.638,297.426 536.148 C 295.440 535.243,294.981 534.268,294.893 530.771 C 294.430 512.288,296.100 504.586,303.738 490.000 C 306.473 484.775,310.178 476.802,311.970 472.281 C 313.860 467.514,315.915 463.876,316.864 463.618 C 317.764 463.374,320.201 462.887,322.280 462.536 C 327.172 461.710,335.311 453.891,340.534 445.000 C 349.676 429.436,355.457 424.362,370.070 419.071 C 380.975 415.123,385.669 412.264,390.177 406.822 C 392.555 403.952,396.975 399.280,400.000 396.440 C 410.909 386.197,421.114 377.015,424.275 374.597 C 426.049 373.241,429.750 368.898,432.500 364.945 C 435.250 360.993,439.393 355.570,441.707 352.895 C 444.048 350.188,446.547 345.917,447.342 343.265 C 448.127 340.644,450.865 334.968,453.427 330.650 C 461.791 316.552,465.000 305.304,465.000 290.086 C 465.000 277.707,466.788 274.346,474.508 272.217 C 482.689 269.961,486.229 267.773,490.229 262.500 C 493.856 257.718,495.243 254.240,498.400 242.000 C 499.181 238.975,501.714 231.325,504.030 225.000 C 506.391 218.552,508.592 210.425,509.040 206.500 C 509.480 202.650,510.301 195.900,510.866 191.500 C 511.430 187.100,511.916 183.152,511.946 182.728 C 512.068 180.978,520.393 173.000,522.097 173.000 C 525.802 173.000,532.222 177.385,535.996 182.495 C 539.402 187.106,546.805 194.000,548.349 194.000 C 548.658 194.000,554.143 197.218,560.538 201.151 C 569.000 206.355,572.834 209.361,574.620 212.190 C 575.970 214.328,578.245 216.523,579.676 217.067 C 581.107 217.611,583.595 219.165,585.206 220.520 C 589.163 223.850,597.563 226.143,604.658 225.831 C 607.871 225.689,614.100 226.382,618.500 227.369 C 625.798 229.007,629.835 229.097,664.500 228.389 C 685.400 227.962,704.750 227.655,707.500 227.707 C 741.678 228.346,750.075 228.062,756.870 226.039 C 763.686 224.009,765.414 222.808,767.479 218.666 C 768.061 217.500,772.145 214.735,776.556 212.523 C 792.396 204.577,799.533 193.000,788.591 193.000 C 786.669 193.000,786.409 192.572,786.784 190.017 C 787.157 187.479,786.796 186.868,784.361 185.915 C 780.024 184.218,763.751 185.576,758.926 188.038 C 756.498 189.276,752.115 190.224,747.268 190.560 C 742.996 190.855,738.240 191.293,736.700 191.533 C 732.927 192.122,734.097 190.490,739.318 187.883 C 744.773 185.159,751.000 178.456,751.000 175.308 C 751.000 171.222,749.219 169.000,745.943 169.000 C 743.794 169.000,742.662 169.647,741.905 171.309 C 740.418 174.573,734.697 177.825,724.922 180.963 C 717.117 183.469,716.188 184.064,712.242 189.084 C 709.900 192.063,706.660 196.007,705.041 197.848 L 702.099 201.196 692.800 200.647 C 670.511 199.332,655.894 197.396,647.085 194.592 C 644.563 193.789,639.125 192.377,635.000 191.454 C 630.875 190.531,625.121 188.926,622.212 187.888 C 619.304 186.850,615.346 186.000,613.416 186.000 C 607.866 186.000,596.166 179.538,585.866 170.783 C 568.993 156.442,562.390 149.387,558.286 141.314 C 556.204 137.219,553.887 132.661,553.137 131.185 C 551.492 127.943,541.921 120.852,532.917 116.204 C 528.387 113.865,524.178 112.558,519.417 112.012 C 511.631 111.118,509.317 110.344,499.802 105.447 C 496.118 103.551,491.730 102.000,490.052 102.000 C 486.943 102.000,486.519 101.246,486.953 96.500 C 487.521 90.284,489.395 86.668,494.880 81.200 C 501.489 74.611,501.340 75.118,503.044 53.373 C 503.995 41.233,503.930 38.504,502.587 33.980 C 498.367 19.772,491.156 13.998,477.635 14.002 C 471.318 14.005,469.689 14.435,463.426 17.752 M488.500 17.890 C 493.644 20.264,496.552 23.477,498.466 28.904 C 500.607 34.971,500.478 35.233,496.250 33.411 C 489.867 30.662,474.073 26.765,471.713 27.357 C 470.479 27.667,467.003 30.130,463.988 32.830 L 458.506 37.741 462.753 38.458 C 465.089 38.853,467.000 39.499,467.000 39.894 C 467.000 40.288,465.875 42.136,464.500 44.000 C 463.125 45.864,462.000 47.776,462.000 48.249 C 462.000 50.368,456.041 55.265,452.890 55.735 C 446.814 56.641,444.703 56.521,444.263 55.247 C 443.984 54.437,444.657 54.083,446.166 54.247 C 447.940 54.439,448.425 54.062,448.189 52.676 C 447.874 50.828,449.592 48.000,451.029 48.000 C 451.460 48.000,451.559 48.970,451.249 50.156 C 450.862 51.634,451.049 52.088,451.842 51.597 C 452.479 51.204,453.000 49.113,453.000 46.952 C 453.000 44.790,453.895 40.665,454.989 37.786 C 456.779 33.077,456.824 32.397,455.442 31.025 C 454.063 29.657,453.706 29.758,451.975 32.000 C 450.447 33.978,450.040 34.142,450.022 32.785 C 449.970 28.732,459.950 20.571,468.844 17.394 C 474.238 15.467,483.772 15.708,488.500 17.890 M475.255 19.250 C 474.711 19.938,473.740 21.512,473.098 22.750 C 472.080 24.711,472.179 25.000,473.867 25.000 C 475.141 25.000,476.180 23.922,476.902 21.851 C 477.506 20.119,478.000 18.544,478.000 18.351 C 478.000 17.507,476.158 18.110,475.255 19.250 M153.000 28.884 C 156.299 31.271,157.977 34.706,157.941 39.000 L 157.912 42.500 156.519 38.591 C 154.795 33.752,151.704 30.516,149.583 31.330 C 146.786 32.403,147.790 35.530,151.500 37.299 C 155.182 39.055,156.098 41.641,153.404 42.675 C 152.335 43.085,150.535 41.896,147.959 39.079 C 144.623 35.429,143.839 35.016,142.056 35.970 C 140.925 36.575,140.000 37.355,140.000 37.702 C 140.000 38.049,140.282 38.051,140.627 37.707 C 141.499 36.834,147.000 39.805,147.000 41.148 C 147.000 41.875,146.492 41.823,145.492 40.993 C 143.163 39.060,134.962 40.328,132.840 42.950 C 130.398 45.965,131.467 48.533,134.077 45.923 C 135.135 44.865,137.012 44.029,138.250 44.063 C 140.443 44.125,140.437 44.152,138.021 45.116 C 136.657 45.660,134.730 46.839,133.739 47.736 C 132.073 49.244,131.812 49.241,130.269 47.697 C 128.710 46.139,128.828 45.552,132.050 38.826 C 133.947 34.865,136.592 30.311,137.927 28.707 C 140.197 25.979,140.685 25.831,145.427 26.432 C 148.217 26.786,151.625 27.889,153.000 28.884 M139.461 31.043 L 137.545 33.161 141.022 32.830 C 143.285 32.615,144.500 31.981,144.500 31.014 C 144.500 28.689,141.576 28.706,139.461 31.043 M52.128 35.422 C 55.672 36.916,60.984 41.986,62.880 45.684 C 65.549 50.889,63.651 61.427,59.177 66.250 C 55.382 70.341,54.283 69.581,57.951 65.403 C 63.048 59.598,62.298 58.735,46.332 52.016 C 37.907 48.471,33.794 48.230,30.182 51.072 C 28.565 52.344,27.405 52.716,27.179 52.037 C 26.699 50.598,29.609 43.358,32.037 39.948 C 35.937 34.471,45.019 32.425,52.128 35.422 M490.543 43.500 C 493.910 48.763,495.751 49.829,500.250 49.118 C 500.663 49.053,500.971 50.912,500.937 53.250 C 500.880 57.071,500.774 57.251,499.888 55.031 L 498.903 52.562 497.701 54.933 C 495.606 59.067,493.680 59.563,490.073 56.896 C 485.778 53.720,475.382 53.439,472.099 56.411 C 469.579 58.691,468.401 57.987,469.936 55.119 C 470.566 53.942,470.761 51.357,470.393 49.056 C 469.802 45.363,469.965 44.964,472.441 44.022 C 476.518 42.472,477.503 42.787,475.500 45.000 C 474.505 46.100,474.177 47.000,474.772 47.000 C 475.368 47.000,476.675 45.981,477.677 44.736 C 479.861 42.024,484.920 38.000,486.147 38.000 C 486.630 38.000,488.608 40.475,490.543 43.500 M479.835 46.673 C 477.667 47.247,476.793 49.600,478.309 50.780 C 480.132 52.199,487.813 53.862,489.955 53.301 C 493.247 52.441,493.089 50.218,489.581 48.050 C 486.428 46.102,483.536 45.693,479.835 46.673 M134.000 55.500 C 135.468 57.062,137.502 58.026,139.424 58.070 C 141.116 58.109,143.398 58.491,144.495 58.919 C 146.450 59.682,144.604 60.064,132.000 61.506 C 130.075 61.726,126.925 62.183,125.000 62.521 C 121.607 63.117,121.576 63.094,124.000 61.791 C 125.375 61.051,127.291 58.770,128.258 56.723 C 129.225 54.675,130.384 53.000,130.834 53.000 C 131.283 53.000,132.708 54.125,134.000 55.500 M161.000 56.290 C 159.625 56.983,158.356 58.551,158.180 59.775 C 157.847 62.100,155.000 62.948,155.000 60.723 C 155.000 58.073,158.126 55.000,160.807 55.015 L 163.500 55.029 161.000 56.290 M488.285 60.917 C 489.253 61.911,488.485 62.018,484.500 61.444 C 476.625 60.308,474.512 58.914,481.285 59.322 C 484.467 59.514,487.617 60.232,488.285 60.917 M448.200 69.396 C 448.414 75.037,448.143 77.416,447.250 77.729 C 446.308 78.059,446.000 75.877,446.000 68.883 C 446.000 57.503,447.763 57.913,448.200 69.396 M129.135 66.417 L 132.500 67.833 129.750 68.525 C 128.238 68.905,127.000 69.627,127.000 70.129 C 127.000 70.630,128.688 70.186,130.750 69.142 C 133.381 67.811,135.171 67.496,136.750 68.090 C 139.654 69.181,139.590 70.501,136.483 73.608 C 134.597 75.494,133.407 75.941,131.733 75.393 C 130.505 74.991,123.781 74.668,116.792 74.676 L 104.084 74.691 105.995 72.007 C 107.046 70.530,108.605 68.742,109.459 68.034 C 113.024 65.075,123.838 64.187,129.135 66.417 M169.969 74.481 L 175.807 78.027 176.509 84.075 C 176.895 87.401,176.938 90.395,176.605 90.728 C 176.272 91.061,176.000 90.358,176.000 89.167 C 176.000 86.554,173.513 86.290,172.080 88.750 C 171.519 89.713,171.047 89.972,171.030 89.327 C 171.014 88.682,169.674 86.828,168.053 85.206 C 165.224 82.378,165.088 82.344,164.689 84.380 C 164.460 85.546,164.206 83.800,164.125 80.500 C 164.044 77.200,163.815 72.925,163.615 71.000 C 163.415 69.075,163.450 68.273,163.691 69.217 C 163.933 70.162,166.758 72.530,169.969 74.481 M154.383 72.061 C 154.869 72.504,152.740 73.601,149.652 74.499 C 146.564 75.397,143.777 76.552,143.459 77.066 C 142.756 78.205,139.306 78.305,138.627 77.206 C 138.357 76.769,139.049 74.970,140.165 73.209 C 142.153 70.068,142.304 70.018,147.847 70.630 C 150.956 70.974,153.897 71.618,154.383 72.061 M98.179 79.972 C 96.981 81.593,96.000 83.313,96.000 83.794 C 96.000 84.275,94.196 87.244,91.991 90.391 C 89.787 93.538,87.060 97.922,85.932 100.132 C 83.740 104.429,78.017 123.315,78.006 126.285 C 77.998 128.515,75.697 132.196,70.683 138.000 C 65.522 143.973,63.848 147.512,60.276 160.000 C 54.181 181.309,52.988 188.848,54.738 195.000 C 55.417 197.385,55.482 197.340,56.150 194.000 C 56.751 190.994,56.826 191.215,56.675 195.562 L 56.500 200.624 62.000 199.328 C 65.214 198.570,73.788 198.025,82.628 198.016 C 99.897 197.998,99.978 198.033,101.009 206.073 C 101.625 210.870,101.595 210.943,99.716 209.242 C 98.232 207.898,95.363 207.386,87.146 207.000 L 76.500 206.500 84.000 205.200 C 96.492 203.034,97.120 202.860,96.722 201.659 C 95.631 198.367,65.858 199.072,57.042 202.600 C 49.979 205.426,51.961 206.519,63.749 206.299 C 70.706 206.169,73.618 206.399,72.000 206.950 C 70.625 207.418,67.573 207.845,65.218 207.900 C 62.863 207.955,59.320 208.675,57.346 209.500 C 51.210 212.064,50.655 211.713,51.410 205.750 C 51.776 202.863,52.284 195.775,52.539 190.000 C 53.000 179.562,53.932 173.519,56.704 163.000 C 57.502 159.975,58.496 155.925,58.913 154.000 C 60.181 148.159,64.797 140.204,70.547 133.949 C 75.018 129.086,76.021 127.340,76.115 124.259 C 76.179 122.191,76.305 120.050,76.397 119.500 C 77.615 112.161,78.683 108.859,80.926 105.500 C 82.395 103.300,84.475 99.475,85.549 97.000 C 88.973 89.103,98.592 75.259,99.809 76.476 C 100.111 76.778,99.377 78.351,98.179 79.972 M139.171 81.655 C 140.177 82.565,141.000 83.915,141.000 84.655 C 141.000 86.317,138.810 86.410,137.217 84.817 C 135.578 83.178,134.432 84.611,135.934 86.421 C 136.605 87.229,137.006 88.927,136.827 90.195 C 136.550 92.151,135.910 92.500,132.609 92.500 C 127.701 92.500,125.968 90.296,127.956 86.582 C 131.378 80.187,135.533 78.362,139.171 81.655 M445.790 91.499 C 445.479 96.317,443.824 97.409,442.000 94.000 C 441.253 92.604,441.249 92.000,441.986 92.000 C 442.567 92.000,443.555 90.875,444.182 89.500 C 445.795 85.960,446.121 86.365,445.790 91.499 M358.000 99.647 C 352.775 102.681,349.625 104.854,351.000 104.476 C 353.520 103.785,368.000 95.226,368.000 94.429 C 368.000 93.818,368.402 93.609,358.000 99.647 M173.869 105.342 C 175.354 107.131,178.582 117.392,179.424 123.000 L 180.099 127.500 177.550 124.694 C 176.147 123.151,175.000 120.804,175.000 119.479 C 175.000 118.154,174.289 114.975,173.419 112.414 C 171.339 106.286,170.936 104.000,171.935 104.000 C 172.386 104.000,173.256 104.604,173.869 105.342 M525.359 114.407 C 530.267 115.885,542.474 123.173,547.381 127.556 C 548.965 128.971,552.483 134.666,555.199 140.211 C 558.580 147.112,561.929 152.196,565.819 156.328 C 570.487 161.287,570.831 161.864,567.748 159.561 C 564.326 157.006,563.729 156.870,560.972 158.011 C 558.399 159.077,557.680 159.020,556.142 157.628 C 555.148 156.729,552.213 155.270,549.620 154.386 C 544.406 152.610,543.990 150.666,548.722 150.194 C 550.410 150.026,552.556 149.043,553.492 148.008 C 555.103 146.228,555.054 145.870,552.573 141.314 C 549.361 135.417,544.793 132.159,537.245 130.383 C 529.109 128.469,527.339 128.644,523.447 131.750 C 520.388 134.191,520.000 135.034,520.000 139.250 C 520.000 150.444,516.341 140.305,515.399 126.500 C 515.137 122.650,514.743 118.037,514.524 116.250 C 514.146 113.163,514.290 113.000,517.404 113.000 C 519.207 113.000,522.787 113.633,525.359 114.407 M495.066 116.035 C 497.336 117.250,497.623 121.238,495.564 122.947 C 492.113 125.811,487.980 119.420,491.200 116.200 C 492.655 114.745,492.655 114.745,495.066 116.035 M295.500 118.964 C 300.271 121.330,304.894 121.548,307.559 119.532 C 309.350 118.177,309.115 118.060,304.500 118.021 C 301.750 117.997,297.700 117.753,295.500 117.479 L 291.500 116.980 295.500 118.964 M418.294 121.627 C 418.639 121.972,418.291 123.762,417.521 125.605 C 416.750 127.448,416.516 129.201,417.001 129.500 C 417.903 130.058,422.000 126.244,422.000 124.847 C 422.000 123.439,426.038 121.877,428.038 122.512 C 431.036 123.464,430.425 125.752,424.700 135.000 C 420.009 142.576,419.115 143.500,416.469 143.500 C 413.368 143.500,412.767 141.770,414.472 137.750 C 415.903 134.376,412.388 135.918,409.913 139.750 C 406.996 144.266,403.000 145.446,403.000 141.791 C 403.000 139.168,409.284 125.465,411.732 122.750 C 413.279 121.034,417.055 120.388,418.294 121.627 M447.662 126.133 C 454.439 128.199,451.921 132.665,444.598 131.567 C 438.937 130.718,437.717 132.437,442.548 134.456 C 447.544 136.543,446.511 138.432,440.171 138.802 C 434.237 139.149,433.313 140.925,438.123 142.740 C 440.301 143.563,441.066 144.384,440.654 145.459 C 439.272 149.060,443.114 146.461,450.942 138.500 C 460.022 129.266,462.081 128.439,468.167 131.586 C 470.843 132.970,471.166 133.576,470.705 136.336 C 470.414 138.076,468.806 142.537,467.130 146.250 C 464.499 152.079,463.728 153.000,461.476 153.000 C 455.927 153.000,452.980 148.922,456.448 146.043 C 458.369 144.448,462.145 138.000,461.157 138.000 C 460.730 138.000,458.247 140.472,455.638 143.494 C 450.172 149.825,447.756 150.761,442.520 148.573 C 440.450 147.708,436.853 147.000,434.527 147.000 C 429.790 147.000,424.000 145.287,424.000 143.885 C 424.000 142.305,433.113 127.591,435.244 125.730 C 437.342 123.898,440.688 124.006,447.662 126.133 M189.151 141.307 C 192.368 145.051,195.000 148.596,195.000 149.186 C 195.000 149.775,196.463 151.949,198.250 154.016 C 200.037 156.083,202.988 159.625,204.806 161.887 C 206.625 164.149,208.517 166.000,209.011 166.000 C 209.505 166.000,212.932 168.260,216.628 171.023 C 226.237 178.206,233.026 186.495,232.967 190.973 L 232.933 193.500 230.967 191.139 C 229.885 189.841,229.000 188.208,229.000 187.512 C 229.000 186.815,228.365 185.718,227.589 185.074 C 226.401 184.088,226.263 184.543,226.720 187.951 C 227.052 190.422,226.860 192.000,226.229 192.000 C 225.009 192.000,223.000 186.671,223.000 183.433 C 223.000 179.400,221.861 177.996,216.836 175.834 C 213.677 174.475,211.371 172.684,210.425 170.856 C 209.613 169.285,208.369 168.000,207.661 168.000 C 206.953 168.000,205.054 166.622,203.440 164.938 C 201.827 163.253,198.677 161.066,196.442 160.077 C 192.393 158.286,176.000 143.344,176.000 141.444 C 176.000 140.895,177.350 138.968,179.000 137.161 C 180.650 135.355,182.036 133.342,182.079 132.688 C 182.122 132.035,182.415 132.175,182.730 133.000 C 183.045 133.825,185.934 137.563,189.151 141.307 M500.810 135.748 C 500.625 136.710,498.877 138.248,496.927 139.167 C 494.976 140.085,492.790 141.548,492.068 142.418 C 491.346 143.288,489.764 144.000,488.552 144.000 C 486.062 144.000,483.457 146.549,479.611 152.750 C 477.504 156.148,476.400 157.000,474.110 157.000 C 469.007 157.000,468.657 154.985,472.652 148.599 C 475.878 143.442,476.120 142.593,474.976 140.455 C 473.930 138.501,473.942 137.775,475.044 136.448 C 476.394 134.821,477.271 134.828,487.056 136.548 C 489.657 137.006,490.964 136.748,491.928 135.587 C 492.724 134.628,494.808 134.000,497.196 134.000 C 500.419 134.000,501.085 134.322,500.810 135.748 M181.527 137.915 C 180.685 140.569,183.272 145.346,186.985 147.989 C 188.643 149.170,190.000 149.829,190.000 149.454 C 190.000 148.499,185.872 140.963,183.844 138.215 C 182.209 136.001,182.137 135.991,181.527 137.915 M381.215 152.823 C 380.115 155.945,378.959 160.258,378.645 162.407 C 378.331 164.556,376.544 168.620,374.672 171.439 C 372.800 174.258,369.597 180.375,367.553 185.032 C 365.509 189.689,363.127 194.289,362.260 195.253 C 361.393 196.218,360.374 198.693,359.996 200.753 C 359.432 203.822,359.176 204.138,358.580 202.500 C 358.181 201.400,357.437 199.719,356.927 198.764 C 355.289 195.695,355.926 190.257,359.096 180.262 C 363.233 167.217,369.043 158.228,376.290 153.660 C 377.824 152.693,379.837 150.313,380.763 148.371 C 383.230 143.197,383.538 146.228,381.215 152.823 M470.619 164.619 C 473.426 165.324,475.000 167.769,475.000 171.425 C 475.000 173.247,473.997 174.631,471.512 176.241 C 468.956 177.897,468.021 179.221,468.012 181.203 C 467.984 187.494,464.222 191.000,457.500 191.000 C 452.649 191.000,449.324 189.197,447.919 185.805 C 446.895 183.333,446.959 182.612,448.322 181.249 C 449.719 179.852,450.285 179.815,452.454 180.975 C 453.836 181.715,455.230 183.148,455.551 184.160 C 456.331 186.620,458.666 186.493,460.045 183.917 C 460.926 182.270,460.818 181.457,459.532 180.036 C 458.033 178.379,458.032 178.111,459.524 176.619 C 460.414 175.728,461.995 175.000,463.036 175.000 C 464.976 175.000,467.660 171.326,466.538 170.205 C 466.195 169.862,464.246 169.684,462.207 169.809 C 460.168 169.934,457.825 169.595,457.000 169.055 C 455.667 168.181,455.667 167.910,457.000 166.609 C 458.766 164.888,464.918 163.004,466.843 163.596 C 467.581 163.823,469.281 164.283,470.619 164.619 M747.800 174.653 C 748.047 177.114,747.316 178.357,743.730 181.576 C 739.259 185.589,733.093 189.503,731.750 189.180 C 730.565 188.895,730.868 189.725,732.571 191.429 C 734.833 193.690,745.866 193.420,754.500 190.892 C 763.397 188.286,770.052 187.161,777.000 187.088 C 783.335 187.022,786.182 188.218,784.262 190.138 C 783.300 191.100,782.525 191.084,780.617 190.063 C 778.755 189.066,777.070 189.011,773.347 189.826 C 736.618 197.862,732.035 198.421,725.737 195.630 C 722.296 194.105,721.714 194.097,718.935 195.533 C 717.264 196.398,715.642 197.769,715.331 198.580 C 714.491 200.768,711.423 202.093,709.157 201.245 C 707.258 200.535,707.319 200.272,710.478 195.600 C 716.077 187.316,718.666 185.184,725.792 182.983 C 733.607 180.569,739.590 177.243,742.801 173.529 C 745.617 170.272,747.402 170.673,747.800 174.653 M211.171 178.752 C 212.078 184.068,214.487 188.655,217.108 190.058 C 219.173 191.163,219.174 191.190,217.230 192.552 C 216.149 193.309,214.914 195.407,214.486 197.214 C 213.738 200.374,213.680 200.290,212.978 195.000 C 212.576 191.975,211.292 187.121,210.124 184.213 C 208.956 181.305,208.000 177.780,208.000 176.380 C 208.000 172.346,210.381 174.128,211.171 178.752 M507.983 179.060 C 507.442 180.945,507.000 184.740,507.000 187.493 C 507.000 192.225,503.883 200.057,496.250 214.500 C 495.378 216.150,493.840 219.058,492.832 220.961 C 491.785 222.939,491.000 226.497,491.000 229.261 C 491.000 234.378,489.934 237.034,484.870 244.538 C 481.963 248.845,481.819 249.453,482.873 252.971 C 483.498 255.057,484.682 257.321,485.505 258.004 C 487.460 259.627,487.349 261.001,485.040 263.770 C 483.046 266.161,476.178 269.512,475.225 268.559 C 474.918 268.251,475.106 268.000,475.642 268.000 C 476.179 268.000,477.491 267.300,478.559 266.445 C 480.434 264.943,480.426 264.926,478.316 265.945 C 475.472 267.318,472.885 267.297,475.250 265.920 C 478.027 264.303,479.998 259.504,480.023 254.300 C 480.040 250.817,480.854 248.128,482.988 244.500 C 488.411 235.282,489.956 231.525,489.978 227.500 C 489.999 223.742,493.135 216.125,500.658 201.563 C 503.811 195.459,505.975 188.493,505.989 184.399 C 506.000 181.280,507.914 174.581,508.599 175.265 C 508.801 175.467,508.523 177.175,507.983 179.060 M736.250 182.464 C 733.235 183.868,731.000 185.566,731.000 186.454 C 731.000 187.304,731.168 188.000,731.374 188.000 C 732.398 188.000,740.966 182.746,742.026 181.468 C 743.743 179.399,742.297 179.649,736.250 182.464 M789.181 194.712 C 791.993 195.524,792.026 197.753,789.253 199.570 C 787.808 200.517,785.638 202.463,784.431 203.896 C 783.223 205.328,778.607 208.431,774.172 210.791 C 769.605 213.222,765.843 215.920,765.495 217.015 C 764.766 219.314,760.327 223.000,758.288 223.000 C 757.459 223.000,758.171 221.886,759.966 220.376 C 761.681 218.932,762.910 217.577,762.697 217.363 C 762.484 217.150,760.313 217.859,757.874 218.938 C 755.435 220.017,750.366 221.214,746.611 221.599 C 741.383 222.134,740.193 222.529,741.536 223.280 C 742.520 223.831,746.145 223.996,749.788 223.655 C 753.361 223.322,755.981 223.352,755.610 223.724 C 755.000 224.333,734.907 226.131,727.500 226.239 C 723.981 226.291,714.215 224.548,713.388 223.721 C 713.074 223.407,713.294 222.329,713.878 221.325 C 714.462 220.321,714.953 220.063,714.970 220.750 C 714.992 221.677,717.774 221.972,725.750 221.892 L 736.500 221.785 729.485 220.619 C 725.627 219.978,720.859 218.458,718.889 217.240 C 716.919 216.023,715.013 215.321,714.653 215.680 C 714.294 216.039,714.000 215.587,714.000 214.674 C 714.000 213.762,715.326 211.834,716.946 210.391 C 718.566 208.947,720.028 206.806,720.196 205.633 C 720.408 204.143,721.253 203.467,723.000 203.392 C 729.495 203.110,729.635 203.021,726.222 201.339 C 722.038 199.277,722.419 198.975,727.932 199.986 C 730.369 200.432,733.018 200.547,733.818 200.240 C 734.754 199.880,735.117 200.184,734.836 201.091 C 734.595 201.866,730.873 204.280,726.565 206.455 C 722.256 208.631,719.321 210.607,720.042 210.847 C 721.967 211.489,743.734 209.012,749.180 207.532 C 752.266 206.693,754.197 206.597,754.849 207.249 C 756.040 208.440,763.615 206.808,772.869 203.368 C 776.372 202.065,780.479 201.000,781.997 201.000 C 783.514 201.000,785.372 200.257,786.125 199.349 C 787.377 197.841,787.063 197.749,782.498 198.287 C 763.898 200.478,761.727 199.970,775.000 196.532 C 778.575 195.606,782.175 194.458,783.000 193.981 C 783.825 193.505,785.175 193.365,786.000 193.671 C 786.825 193.977,788.256 194.445,789.181 194.712 M679.000 202.000 C 679.000 202.576,675.927 202.994,671.750 202.985 C 666.700 202.974,664.955 202.675,666.000 202.000 C 667.985 200.717,679.000 200.717,679.000 202.000 M135.363 204.506 C 137.617 206.760,138.378 210.036,136.953 211.351 C 136.267 211.983,135.962 212.037,136.275 211.472 C 137.202 209.797,133.732 206.174,130.500 205.442 C 127.621 204.790,127.581 204.827,129.500 206.349 C 131.496 207.933,131.496 207.936,129.450 207.968 C 127.135 208.004,125.000 206.245,125.000 204.300 C 125.000 202.423,133.448 202.591,135.363 204.506 M773.750 206.658 C 769.809 208.293,768.785 210.003,771.750 209.996 C 773.515 209.992,780.000 206.470,780.000 205.515 C 780.000 204.617,777.621 205.053,773.750 206.658 M358.335 214.127 C 358.169 214.472,356.084 215.245,353.700 215.845 C 350.408 216.674,348.362 218.128,345.183 221.898 C 342.882 224.626,341.000 227.183,341.000 227.580 C 341.000 228.575,335.794 239.134,335.476 238.783 C 334.803 238.040,337.328 225.246,338.514 223.390 C 340.231 220.704,348.788 215.000,351.100 215.000 C 353.658 215.000,355.992 212.259,356.056 209.179 C 356.109 206.675,356.195 206.729,357.374 210.000 C 358.068 211.925,358.501 213.782,358.335 214.127 M757.573 211.782 C 755.712 212.200,751.805 216.130,752.527 216.858 C 753.150 217.486,763.000 214.653,763.000 213.846 C 763.000 212.587,759.655 211.315,757.573 211.782 M113.000 215.998 C 116.025 216.694,121.945 218.507,126.155 220.027 C 131.963 222.124,134.109 222.514,135.052 221.645 C 136.022 220.751,136.130 220.938,135.541 222.500 C 135.127 223.600,134.119 226.412,133.300 228.750 C 132.482 231.088,131.682 233.000,131.524 233.000 C 131.365 233.000,126.570 230.737,120.868 227.971 C 110.318 222.854,111.040 222.470,123.374 226.641 C 130.381 229.010,132.000 228.977,132.000 226.467 C 132.000 224.539,128.342 222.803,116.161 218.948 C 110.474 217.148,104.849 214.826,103.661 213.788 C 101.505 211.906,101.507 211.904,104.500 213.316 C 106.150 214.095,109.975 215.301,113.000 215.998 M96.870 222.898 C 97.993 223.610,98.106 227.060,97.497 242.073 L 96.754 260.379 92.033 265.440 C 85.921 271.990,84.000 276.089,84.000 282.581 C 84.000 286.597,83.215 289.363,80.709 294.177 C 78.899 297.655,75.906 304.696,74.059 309.825 C 70.123 320.753,68.120 322.705,62.268 321.308 C 58.661 320.447,58.506 320.239,58.642 316.454 C 58.721 314.279,59.264 309.800,59.851 306.500 C 60.438 303.200,61.383 297.664,61.952 294.197 C 62.521 290.730,63.440 287.047,63.993 286.012 C 64.547 284.978,65.006 282.864,65.013 281.316 C 65.020 279.767,65.913 275.670,66.997 272.212 C 68.548 267.264,68.837 264.375,68.353 258.653 C 67.751 251.521,67.818 251.238,71.862 243.869 C 74.130 239.737,76.886 233.738,77.987 230.537 C 79.088 227.336,80.497 224.106,81.117 223.359 C 82.396 221.817,94.600 221.461,96.870 222.898 M323.754 245.010 C 319.779 248.986,319.750 249.070,320.383 254.760 C 320.943 259.790,320.662 261.258,318.110 266.630 C 316.509 270.001,314.698 273.069,314.085 273.447 C 313.473 273.826,312.073 276.018,310.975 278.318 C 309.877 280.618,309.546 281.665,310.239 280.645 C 310.933 279.624,312.787 277.149,314.359 275.145 C 319.514 268.572,322.172 261.226,321.459 255.519 C 320.925 251.242,321.168 250.056,323.076 247.630 C 324.312 246.059,326.713 243.927,328.411 242.891 C 330.716 241.486,331.026 241.007,329.632 241.004 C 328.605 241.002,325.960 242.805,323.754 245.010 M430.906 242.894 C 433.694 245.037,433.229 248.374,430.288 247.334 C 428.110 246.564,424.000 242.963,424.000 241.826 C 424.000 240.323,428.459 241.013,430.906 242.894 M339.351 279.472 C 340.121 281.478,338.189 286.713,336.430 287.388 C 333.564 288.488,332.055 286.986,332.684 283.660 C 333.012 281.922,333.723 279.938,334.263 279.250 C 335.605 277.541,338.661 277.674,339.351 279.472 M62.000 347.508 C 62.000 349.051,60.795 350.818,58.597 352.494 C 56.726 353.921,54.919 356.186,54.583 357.526 C 53.898 360.254,49.396 363.000,45.609 363.000 C 41.355 363.000,41.903 361.441,46.598 360.185 C 50.595 359.116,51.295 358.477,53.103 354.244 C 55.287 349.129,59.779 343.745,61.153 344.595 C 61.619 344.882,62.000 346.194,62.000 347.508 M43.000 349.500 C 41.625 350.286,39.150 350.929,37.500 350.929 L 34.500 350.929 37.000 349.500 C 38.375 348.714,40.850 348.071,42.500 348.071 L 45.500 348.071 43.000 349.500 M377.162 384.349 C 383.060 393.015,386.012 398.657,385.988 401.218 C 385.981 401.923,384.944 400.700,383.683 398.500 C 382.422 396.300,378.133 389.648,374.152 383.719 C 370.171 377.789,366.672 372.164,366.376 371.219 C 365.536 368.527,370.536 374.614,377.162 384.349 M409.718 373.898 C 412.374 377.853,412.564 379.872,410.532 382.559 C 409.156 384.378,409.062 384.264,409.032 380.750 C 409.011 378.252,408.266 376.266,406.803 374.803 L 404.605 372.605 403.446 375.441 L 402.286 378.278 401.746 375.452 C 400.965 371.367,401.862 369.846,404.845 370.196 C 406.472 370.387,408.284 371.763,409.718 373.898 M287.000 447.166 C 287.000 447.637,286.127 449.929,285.060 452.261 C 283.993 454.592,282.606 458.525,281.977 461.000 C 281.349 463.475,279.780 468.650,278.490 472.500 C 277.200 476.350,275.151 483.254,273.938 487.842 C 272.467 493.401,271.448 495.736,270.881 494.842 C 269.011 491.892,270.059 483.331,273.555 473.000 C 275.508 467.225,278.011 458.459,279.115 453.521 C 280.220 448.582,281.648 444.218,282.289 443.821 C 283.471 443.091,287.000 445.596,287.000 447.166 M279.171 517.655 C 280.177 518.565,281.000 519.895,281.000 520.610 C 281.000 521.362,279.967 520.876,278.545 519.455 C 275.825 516.735,273.946 516.426,270.684 518.164 C 268.710 519.216,268.632 519.168,269.872 517.664 C 271.636 515.526,276.814 515.521,279.171 517.655 M292.760 548.250 C 293.493 549.162,292.851 550.095,290.382 551.704 L 287.000 553.908 287.000 551.654 C 287.000 547.734,290.624 545.592,292.760 548.250 M255.433 552.157 C 254.490 553.996,252.434 557.378,250.863 559.674 C 249.293 561.970,247.485 565.120,246.847 566.674 C 244.649 572.020,244.825 566.542,247.041 560.620 C 248.912 555.618,255.565 547.232,256.734 548.401 C 256.961 548.628,256.376 550.318,255.433 552.157 M258.921 570.848 C 253.423 574.751,252.000 575.070,252.000 572.400 C 252.000 570.842,259.138 567.191,262.421 567.071 C 263.652 567.025,262.396 568.381,258.921 570.848 " stroke="none" fill="undefined" fill-rule="evenodd"/></svg>